<svg xmlns="http://www.w3.org/2000/svg" xmlns:xlink="http://www.w3.org/1999/xlink" version="1.1" id="Layer_1" x="0px" y="0px" viewBox="0 0 612 152.57" style="enable-background:new 0 0 612 152.57;" xml:space="preserve" width="612"  height="152.57" > <style type="text/css"> .st0{fill:#7FC348;} </style> <g id="_x33_L0xGS.tif"> <g> <path d="M146.61,61.83c3.15-2.91,6.65-4.83,10.8-5.57c5.1-0.92,9.81,0.04,14.01,2.97c4,2.79,5.61,7.09,5.77,11.67 c0.28,8.13,0.09,16.28,0.08,24.42c0,0.31-0.17,0.62-0.32,1.11c-3.79,0-7.55,0-11.54,0c-0.08-1.12-0.21-2.08-0.22-3.05 c-0.02-4.98,0.05-9.97-0.03-14.95c-0.03-2.07-0.2-4.15-0.53-6.19c-0.43-2.63-1.75-4.8-4.53-5.37c-3.14-0.64-6.19-0.31-8.38,2.46 c-1.28,1.61-1.88,3.48-1.88,5.56c-0.01,6.15-0.03,12.29-0.07,18.44c-0.01,0.97-0.13,1.94-0.22,3.11c-4.05,0-7.91,0-11.99,0 c-0.09-1.05-0.25-2.02-0.25-2.98c-0.02-5.65,0.02-11.3-0.03-16.95c-0.01-1.48-0.18-2.98-0.45-4.44c-0.61-3.25-2.1-4.83-4.83-5.29 c-3.61-0.61-6.79,0.58-8.33,3.17c-1.36,2.29-1.7,4.83-1.72,7.43c-0.03,5.4,0,10.8-0.02,16.2c0,0.89-0.1,1.78-0.16,2.87 c-3.96,0-7.73,0-11.45,0c-0.7-2.3-0.69-37.47,0.03-39.76c3.47,0,7.01,0,10.69,0c0.14,0.6,0.31,1.13,0.38,1.68 c0.06,0.49,0.01,0.99,0.01,1.8C130.26,54.45,138.61,54.09,146.61,61.83z"/> <path class="st0" d="M456.76,44.71c8.24,10.06,16.38,20,24.86,30.34c0.61-2.91,0.26-5.36,0.33-7.77c0.06-2.49,0.01-4.98,0.01-7.47 c0-2.41,0-4.82,0-7.22c0-2.48,0-4.95,0-7.65c4.04-0.54,7.8-0.33,11.49-0.16c0.71,2.05,0.83,48.75,0.09,51.73 c-1.42,0-2.97,0-4.52,0c-1.57,0-3.15,0-4.89,0c-8.19-9.9-16.35-19.77-24.51-29.64c-0.22,0.08-0.43,0.15-0.65,0.23 c0,9.64,0,19.28,0,29.16c-4.22,0-8.06,0-11.9,0c-0.71-1.93-0.8-48.7-0.03-51.38C450.12,44.38,453.32,44.7,456.76,44.71z"/> <path class="st0" d="M506.13,96.51c0-17.46,0-34.44,0-51.57c0.8-0.12,1.43-0.29,2.07-0.29c6.99-0.01,13.99-0.13,20.97,0.06 c5.93,0.17,11.73,1.11,16.99,4.25c7.09,4.24,10.91,10.46,11.76,18.6c0.46,4.35,0.1,8.59-1.51,12.7 c-3.27,8.37-9.63,13.17-18.15,15.16c-3.2,0.75-6.58,0.95-9.88,1.03c-6.41,0.16-12.82,0.06-19.23,0.06 C508.25,96.51,507.36,96.51,506.13,96.51z M518.58,86.5c5.42-0.16,10.57,0.63,15.65-0.59c6.38-1.54,10.28-5.55,11.41-12.05 c0.27-1.54,0.22-3.14,0.19-4.72c-0.14-6.51-4.5-11.96-10.81-13.61c-5.16-1.35-10.4-0.89-15.62-0.68 c-0.21,0.01-0.42,0.24-0.82,0.49C518.58,65.5,518.58,75.75,518.58,86.5z"/> <path class="st0" d="M433.27,65.66c0,3.27,0,6.13,0,9.35c-7.88,0-15.57,0-23.5,0c0,3.94,0,7.52,0,11.45c9.18,0,18.2,0,27.52,0 c0.42,3.41,0.3,6.5,0.1,9.51c-2.09,0.67-36.89,0.78-39.46,0.19c-0.64-1.97-0.7-48.81,0-51.31c12.69,0,25.43,0,38.4,0 c0,3.21,0,6.23,0,9.52c-4.41,0.59-8.79,0.19-13.15,0.27c-4.39,0.07-8.78,0.02-13.53,0.02c-0.21,3.64-0.15,7-0.03,10.72 C417.5,65.79,425.27,65.3,433.27,65.66z"/> <path class="st0" d="M343.92,44.74c1.15,0,1.06-0.09,2.48-0.09c5.99,0,11.98-0.14,17.97,0.07c4.22,0.14,8.46,0.39,12.5,1.92 c14.5,5.48,14.52,22.85,5.91,30.38c-3.78,3.31-8.33,4.75-13.27,5.04c-4.3,0.26-8.61,0.41-13.26,0.63 c-0.47,4.46,0.04,8.93-0.32,13.57c-4.11,0-8.02,0-12.16,0C343.77,79.15,343.92,62.08,343.92,44.74z M355.82,72.45 c4.93,0.03,9.57,0.44,14.14-0.66c3.75-0.9,6.21-4.15,6.38-8.21c0.14-3.41-2.39-7.15-5.81-8.14c-4.78-1.38-9.67-0.66-14.71-0.74 C355.82,60.72,355.82,66.39,355.82,72.45z"/> <path class="st0" d="M333.78,48.54c-1.25,3.07-2.42,5.95-3.7,9.12c-1.36-0.52-2.5-0.92-3.62-1.38c-5.25-2.2-10.62-3.35-16.24-1.64 c-1.06,0.32-2.18,0.92-2.94,1.71c-2.06,2.15-1.51,5.43,1.22,6.62c2.5,1.09,5.15,1.85,7.78,2.59c4.47,1.26,9.06,2.12,13.19,4.44 c4.37,2.45,6.43,6.31,6.45,11.05c0.02,5.32-2.5,9.53-6.95,12.54c-2.83,1.92-6.04,2.81-9.33,3.32c-8.1,1.24-15.89,0.07-23.3-3.43 c-0.9-0.43-1.75-0.95-2.61-1.46c-0.27-0.16-0.49-0.41-0.96-0.8c1.33-2.9,2.65-5.8,4.07-8.91c1.03,0.53,1.76,0.88,2.47,1.26 c4.68,2.57,9.68,3.97,15.04,3.87c1.65-0.03,3.35-0.2,4.91-0.69c1.21-0.38,2.43-1.15,3.31-2.08c1.68-1.78,1.34-4.21-0.68-5.57 c-1.09-0.73-2.32-1.34-3.57-1.72c-3.34-1.01-6.76-1.77-10.08-2.82c-2.68-0.85-5.45-1.67-7.86-3.07c-6.11-3.52-7.96-9.7-5.68-16.34 c1.27-3.7,3.78-6.42,7.24-8.2c4.92-2.53,10.15-3.35,15.68-2.97c4.37,0.3,8.55,1.17,12.6,2.76 C331.35,47.19,332.41,47.84,333.78,48.54z"/> <path d="M222.33,96.45c-3.74,0-7.27,0-10.98,0c-0.14-1.2-0.26-2.25-0.38-3.27c-0.18,0-0.41-0.07-0.49,0.01 c-5.07,4.87-11.13,4.74-17.27,3.06c-6.27-1.72-9.52-6.58-9.02-12.65c0.42-5.13,4.71-9.37,10.73-10.12 c3.77-0.47,7.62-0.42,11.43-0.57c1.15-0.05,2.29-0.01,3.41-0.01c0.39-3.22-1.25-5.75-4.19-6.63c-4.3-1.29-8.38-0.38-12.35,1.4 c-0.98,0.44-1.93,0.93-3.21,1.56c-1.74-2.6-2.91-5.39-4.48-8.55c0.35-0.17,0.73-0.34,1.1-0.53c7.73-4.06,15.85-5.41,24.37-3.16 c6.42,1.69,10.77,6.53,11.15,13.14c0.48,8.27,0.37,16.58,0.49,24.88C222.66,95.39,222.48,95.79,222.33,96.45z M210.34,80.35 c-3.63,0-7.12-0.24-10.56,0.08c-2.68,0.25-3.53,1.58-3.54,3.98c-0.01,2.23,1.31,3.92,3.67,4.32c1.37,0.23,2.85,0.29,4.22,0.07 C208.61,88.09,210.79,85.09,210.34,80.35z"/> <path d="M79.56,68.52c0.45,1.99,1.89,2.38,3.26,2.69c3.39,0.79,6.82,1.43,10.22,2.19c1.29,0.29,2.58,0.65,3.82,1.13 c7.63,2.92,8.17,12.14,3.89,16.98c-3.38,3.82-7.92,5.12-12.71,5.55c-6.21,0.56-12.27-0.32-18.07-2.71 c-0.61-0.25-1.21-0.55-1.8-0.86c-0.28-0.15-0.52-0.4-1.09-0.86c1.21-2.69,2.45-5.43,3.79-8.41c1.34,0.56,2.38,1.01,3.42,1.44 c4.78,1.96,9.67,3.04,14.82,1.71c2.14-0.55,2.56-1.26,2.35-3.67c-1.34-1.52-3.34-1.59-5.16-1.98c-2.67-0.58-5.38-1-8.07-1.51 c-0.73-0.14-1.46-0.34-2.16-0.58c-4.64-1.58-7.71-4.46-8.01-9.66c-0.3-5.13,2.03-8.81,6.35-11.24c4.82-2.71,10.14-3.2,15.5-2.55 c3.35,0.41,6.63,1.47,9.92,2.29c0.7,0.17,1.34,0.57,2.32,1.01c-1.29,2.85-2.51,5.53-3.83,8.45c-1-0.3-1.86-0.51-2.68-0.8 c-3.39-1.19-6.84-2.24-10.47-1.83C82.91,65.54,80.42,65.73,79.56,68.52z"/> <path d="M287.11,66.74c-3.37,0-6.41,0-9.56,0c-0.09,0.92-0.21,1.56-0.21,2.2c-0.02,4.4-0.04,8.8,0,13.19 c0.05,4.23,2.37,5.98,6.54,5.01c0.95-0.22,1.9-0.47,3.08-0.77c1.08,2.84,2.09,5.51,3.16,8.34c-6.46,3.08-12.69,3.57-18.86,0.23 c-3.72-2.01-5.51-5.48-5.71-9.62c-0.25-5.13-0.3-10.27-0.43-15.41c-0.02-0.9,0-1.81,0-3c-1.98-0.11-3.9-0.22-5.97-0.34 c0-3.08-0.04-5.76-0.01-8.9c1.99-0.13,3.76-0.25,5.94-0.39c0-2.99,0-5.91,0-9.04c4.42-0.05,7.95-0.05,12.08-0.17 c0,3.06,0,6,0,9.31c3.45,0,6.55,0,9.85,0C287.45,60.59,287.32,63.43,287.11,66.74z"/> <path d="M243.79,60.69c3.99-3.64,8.46-4.58,13.34-4.75c0,3.8,0,7.23,0,10.95c-1.29,0.1-2.5,0.25-3.71,0.29 c-4.86,0.18-7.93,2.78-8.73,7.56c-0.27,1.63-0.36,3.3-0.38,4.95c-0.05,4.64-0.01,9.29-0.04,13.94c0,0.88-0.14,1.76-0.23,2.81 c-3.99,0-7.76,0-11.75,0c0-13.29,0-26.41,0-39.75c3.77,0,7.6,0,11.34,0c0.13,0.63,0.03,1.17,0.1,1.72 C243.82,58.97,243.69,59.52,243.79,60.69z"/> </g> </g> </svg>